<svg xmlns="http://www.w3.org/2000/svg" viewBox="0 0 120 120">
  <defs>
    <linearGradient id="g" x1="0%" y1="0%" x2="100%" y2="100%">
      <stop offset="0%" stop-color="#6366f1"/>
      <stop offset="100%" stop-color="#4338ca"/>
    </linearGradient>
  </defs>
  <circle cx="60" cy="60" r="60" fill="url(#g)"/>
  <g transform="translate(28,28)" fill="none" stroke="#fff" stroke-width="2.5" stroke-linecap="round" stroke-linejoin="round">
    <circle cx="32" cy="32" r="10"/>
    <path d="M29.6 4h4.8l1.6 7.2a22 22 0 0 1 5.6 3.2l7-2.4 2.4 4.2-5.4 5a22 22 0 0 1 0 6.4l5.4 5-2.4 4.2-7-2.4a22 22 0 0 1-5.6 3.2L34.4 60h-4.8l-1.6-7.2a22 22 0 0 1-5.6-3.2l-7 2.4-2.4-4.2 5.4-5a22 22 0 0 1 0-6.4l-5.4-5 2.4-4.2 7 2.4a22 22 0 0 1 5.6-3.2L29.6 4z"/>
  </g>
</svg>
